<?xml version="1.0" standalone="no"?>
<!DOCTYPE svg PUBLIC "-//W3C//DTD SVG 20010904//EN"
 "http://www.w3.org/TR/2001/REC-SVG-20010904/DTD/svg10.dtd">
<svg version="1.0" xmlns="http://www.w3.org/2000/svg"
 width="459.000000pt" height="459.000000pt" viewBox="0 0 459.000000 459.000000"
 preserveAspectRatio="xMidYMid meet">
<metadata>
Created by potrace 1.14, written by Peter Selinger 2001-2017
</metadata>
<g transform="translate(0.000000,459.000000) scale(0.100000,-0.100000)"
fill="#000000" stroke="none">
<path d="M1933 3888 c-6 -7 -14 -30 -17 -52 -4 -21 -12 -46 -17 -55 -29 -48
-48 -419 -24 -476 4 -11 -17 8 -49 42 -37 40 -71 67 -100 78 -25 10 -47 23
-50 31 -7 19 -74 51 -157 74 -101 28 -304 28 -411 1 -279 -71 -472 -297 -564
-657 -68 -272 -56 -590 36 -872 139 -431 250 -652 405 -808 67 -68 108 -99
160 -125 125 -61 224 -43 291 53 l26 38 31 -26 c43 -36 91 -59 214 -100 100
-35 118 -38 243 -40 74 -2 147 -1 163 2 15 3 61 30 102 59 l75 54 52 -37 c48
-33 60 -36 136 -40 131 -7 252 23 413 104 53 26 90 39 95 34 6 -6 55 -21 109
-34 88 -22 110 -24 179 -16 185 21 327 100 486 267 184 193 319 458 380 743
30 141 37 357 15 495 -103 655 -686 1176 -1197 1070 -215 -45 -389 -184 -513
-410 -25 -46 -27 -48 -21 -16 5 27 0 41 -28 80 -73 101 -121 231 -146 400 -17
118 -32 153 -54 131 -5 -5 -18 -4 -31 2 -16 7 -48 7 -106 -1 -72 -10 -86 -9
-95 4 -14 18 -19 19 -31 3z m210 -45 c-7 -2 -19 -2 -25 0 -7 3 -2 5 12 5 14 0
19 -2 13 -5z m709 -1075 c18 -15 58 -78 58 -93 0 -5 -7 1 -16 14 -9 13 -32 30
-51 37 -43 18 -77 4 -110 -45 -13 -19 -23 -28 -23 -20 1 26 38 97 57 108 25
14 66 14 85 -1z m-5 -85 c10 -10 13 -14 7 -10 -7 5 -25 12 -41 17 -23 7 -24 8
-7 9 12 1 30 -7 41 -16z m-1077 -18 c-6 -8 -20 -17 -31 -20 -31 -10 -49 -58
-48 -127 1 -78 10 -113 29 -113 11 0 14 11 12 45 l-2 45 19 -54 c24 -68 48
-101 95 -127 l38 -21 -28 -22 c-14 -11 -34 -21 -44 -21 -34 0 -85 46 -115 104
-26 52 -30 69 -30 145 0 51 6 99 14 119 14 34 52 61 85 62 15 0 16 -3 6 -15z
m93 -55 c34 -41 51 -84 61 -155 l6 -40 -11 35 c-28 91 -44 126 -77 162 -19 21
-30 38 -24 38 6 0 26 -18 45 -40z m971 24 c39 -38 8 -156 -48 -182 -27 -12
-36 -7 -36 19 0 9 -4 19 -10 21 -5 2 -13 18 -16 36 -5 25 -3 32 7 30 9 -2 15
8 17 32 1 19 5 41 7 48 6 17 61 15 79 -4z m-1010 -54 c29 -35 51 -101 61 -184
6 -49 5 -56 -10 -56 -26 0 -71 54 -89 107 -23 67 -20 163 4 163 5 0 20 -14 34
-30z m1085 -97 c1 -87 -19 -145 -56 -162 -21 -10 -29 -9 -45 6 -18 16 -48 64
-48 78 0 3 8 5 19 5 49 0 110 88 112 162 1 40 2 41 9 13 4 -16 8 -63 9 -102z
m-1182 30 c-3 -10 -5 -4 -5 12 0 17 2 24 5 18 2 -7 2 -21 0 -30z"/>
</g>
</svg>
